<?xml version="1.0" standalone="no"?><svg xmlns="http://www.w3.org/2000/svg" viewBox="0 0 1440 320"><path fill="#0099ff" fill-opacity="1" d="M0,64L14.1,80C28.2,96,56,128,85,149.3C112.9,171,141,181,169,176C197.6,171,226,149,254,133.3C282.4,117,311,107,339,122.7C367.1,139,395,181,424,186.7C451.8,192,480,160,508,160C536.5,160,565,192,593,181.3C621.2,171,649,117,678,96C705.9,75,734,85,762,85.3C790.6,85,819,75,847,85.3C875.3,96,904,128,932,128C960,128,988,96,1016,90.7C1044.7,85,1073,107,1101,128C1129.4,149,1158,171,1186,192C1214.1,213,1242,235,1271,213.3C1298.8,192,1327,128,1355,117.3C1383.5,107,1412,149,1426,170.7L1440,192L1440,320L1425.9,320C1411.8,320,1384,320,1355,320C1327.1,320,1299,320,1271,320C1242.4,320,1214,320,1186,320C1157.6,320,1129,320,1101,320C1072.9,320,1045,320,1016,320C988.2,320,960,320,932,320C903.5,320,875,320,847,320C818.8,320,791,320,762,320C734.1,320,706,320,678,320C649.4,320,621,320,593,320C564.7,320,536,320,508,320C480,320,452,320,424,320C395.3,320,367,320,339,320C310.6,320,282,320,254,320C225.9,320,198,320,169,320C141.2,320,113,320,85,320C56.5,320,28,320,14,320L0,320Z"></path></svg>