<?xml version="1.0" standalone="no"?><svg xmlns="http://www.w3.org/2000/svg" viewBox="0 0 1440 320"><path fill="#0099ff" fill-opacity="1" d="M0,64L14.1,80C28.2,96,56,128,85,149.3C112.9,171,141,181,169,176C197.6,171,226,149,254,133.3C282.4,117,311,107,339,122.7C367.1,139,395,181,424,186.7C451.8,192,480,160,508,160C536.5,160,565,192,593,181.3C621.2,171,649,117,678,96C705.9,75,734,85,762,85.3C790.6,85,819,75,847,85.3C875.3,96,904,128,932,128C960,128,988,96,1016,90.7C1044.7,85,1073,107,1101,128C1129.4,149,1158,171,1186,192C1214.1,213,1242,235,1271,213.3C1298.8,192,1327,128,1355,117.3C1383.5,107,1412,149,1426,170.7L1440,192L1440,0L1425.9,0C1411.8,0,1384,0,1355,0C1327.1,0,1299,0,1271,0C1242.4,0,1214,0,1186,0C1157.6,0,1129,0,1101,0C1072.9,0,1045,0,1016,0C988.2,0,960,0,932,0C903.5,0,875,0,847,0C818.8,0,791,0,762,0C734.1,0,706,0,678,0C649.4,0,621,0,593,0C564.7,0,536,0,508,0C480,0,452,0,424,0C395.3,0,367,0,339,0C310.6,0,282,0,254,0C225.9,0,198,0,169,0C141.2,0,113,0,85,0C56.5,0,28,0,14,0L0,0Z"></path></svg>